# xmcd
#
# Track frame offsets:
#	150
#	13921
#	25793
#	41607
#	55223
#	65553
#	81790
#	93766
#	106976
#	122925
#
# Disc length: 1807 seconds
#
# Revision: 0
# Processed by: cddbd v1.5PL3 Copyright (c) Steve Scherf et al.
# Submitted via: dBpowerAMP V4.0
#
DISCID=7d070d0a
DTITLE=Kenny Chesney - In My Wildest Dreams
DYEAR=1900
DGENRE=
TTITLE0=Whatever It Takes
TTITLE1=Somebody's Callin
TTITLE2=The Tin Man
TTITLE3=High And Dry
TTITLE4=I Finally Found Somebody
TTITLE5=When She Calls Me Baby
TTITLE6=In My Wildest Dreams
TTITLE7=I Want My Rib Back
TTITLE8=Angel Loved The Devil
TTITLE9=I'd Love To Change Your Name
EXTD=
EXTT0=
EXTT1=
EXTT2=
EXTT3=
EXTT4=
EXTT5=
EXTT6=
EXTT7=
EXTT8=
EXTT9=
PLAYORDER=
